<?xml version="1.0" encoding="utf-8"?>
<!-- Generator: Adobe Illustrator 25.0.0, SVG Export Plug-In . SVG Version: 6.00 Build 0)  -->
<svg version="1.1" id="Calque_1" xmlns="http://www.w3.org/2000/svg" xmlns:xlink="http://www.w3.org/1999/xlink" x="0px" y="0px"
	 viewBox="0 0 265 248" style="enable-background:new 0 0 265 248;" xml:space="preserve">
<style type="text/css">
	.st0{fill:#FEFEFE;}
	.st1{fill:#BCA857;}
	.st2{fill:#BCA856;}
	.st3{fill:#B9A54F;}
	.st4{fill:#D7CC9B;}
	.st5{fill:#FDFCFA;}
	.st6{fill:#FCFBF9;}
</style>
<g>
	<g>
		<path class="st0" d="M132.5,247.92c-42.97,0-85.95-0.04-128.92,0.08C0.6,248.01,0,247.4,0,244.42C0.1,164.14,0.1,83.86,0,3.58
			C0,0.6,0.6,0,3.58,0c85.95,0.1,171.89,0.1,257.84,0C264.4,0,265,0.6,265,3.58c-0.1,80.28-0.1,160.56,0,240.84
			c0,2.98-0.6,3.59-3.58,3.58C218.45,247.88,175.47,247.92,132.5,247.92z"/>
		<path class="st1" d="M129.3,128.73c10.52-6.86,20.75-13.64,31.08-20.26c7.28-4.67,8.72-12.56,11.29-19.84
			c0.37-1.06-0.17-2.3-1.53-3.65c-2.42,5.22-4.8,10.21-7.04,15.27c-0.91,2.06-2.15,3.66-4.06,4.88
			c-8.69,5.54-17.31,11.2-26.01,16.73c-4.81,3.06-8.36,2.78-10.52-0.6c-2.22-3.49-0.88-7.06,3.93-10.22
			c6.54-4.28,12.85-9,19.73-12.64c7.76-4.1,8.76-11.77,12.58-19.17c-4.4,1.13-5.86,3.8-6.83,6.51c-1.74,4.82-4.95,8-9.32,10.49
			c-5.02,2.87-9.78,6.19-15.21,9.67c-0.61-6.24-1.16-11.87-1.88-19.28c-6.85,9.25-15,14.46-25.76,16.76
			c2.5-5.92-0.35-13.83,8.43-16.65c1.38-0.44,2.33-2.28,3.43-3.52c8.17-9.28,16.38-18.55,29.18-21.51
			c11.75-2.72,22.35,0.27,32.17,6.8c2.33,1.55,2.18,3.98,2.01,6.3c-1.12,15.25-2.3,30.49-3.43,45.74c-0.31,4.15-0.55,8.3-0.78,12.45
			c-0.15,2.66-0.93,4.2-4.16,4.1c-7.98-0.23-15.98-0.06-23.97-0.09c-1.13,0-2.62,0.44-3.27-0.66
			C137.04,132.45,133.12,130.64,129.3,128.73z"/>
		<path class="st2" d="M126.5,158.05c-32.48,0-64.96-0.07-97.44,0.08c-4.28,0.02-6.17-0.66-5.99-5.63
			c0.41-11.5,0.11-11.51,11.46-11.51c16.16,0,32.31,0.03,48.47-0.04c2.49-0.01,4.32,0.26,5.59,2.9c1.43,2.96,4.47,4.45,7.44,5.58
			c11.84,4.53,23.68,4.52,35.46-0.33c2.18-0.9,4.73-1.8,5.66-3.87c2-4.48,5.5-4.36,9.45-4.3c9.49,0.16,18.99,0.09,28.48,0.02
			c2.1-0.01,3.77,0.35,5.28,2.06c3.75,4.25,8.76,5.95,14.29,5.93c5.3-0.02,10.63,0.7,15.88-0.87c3.26-0.98,6.22-2.33,8.54-4.87
			c1.13-1.24,2.24-2.17,4.16-2.29c6.9-0.42,6.96-0.47,6.96,6.45c0.01,10.67,0.01,10.67-10.76,10.67
			C188.46,158.05,157.48,158.05,126.5,158.05z"/>
		<path class="st2" d="M126.89,231.98c-30.3,0-60.6-0.08-90.9,0.1c-4.16,0.02-5.29-1.07-5.25-5.24c0.22-20.14,0.17-40.29,0.03-60.43
			c-0.02-3.37,0.77-4.57,4.38-4.56c61.27,0.11,122.53,0.1,183.8,0.01c3.33-0.01,4.17,1.02,4.15,4.22
			c-0.13,20.48-0.18,40.95,0.04,61.43c0.04,3.98-1.35,4.56-4.86,4.54C187.83,231.93,157.36,231.98,126.89,231.98z"/>
		<path class="st1" d="M149.87,25.87c8.87,0.03,15.93,6.98,15.95,15.69c0.02,8.9-7.22,15.86-16.38,15.75
			c-9.07-0.11-15.56-6.79-15.49-15.93C134.01,32.37,140.71,25.84,149.87,25.87z"/>
		<path class="st2" d="M118.84,130.55c4.91,0.86,9.32,1.66,13.26,3.84c5.31,2.94,5.58,7.6,0.17,10.15
			c-12.2,5.75-24.69,5.81-37.05,0.24c-2.14-0.96-4.16-2.46-4.11-5.17c0.04-2.87,2.15-4.37,4.43-5.53c4.05-2.05,8.36-3.11,12.92-3.31
			c3.49-0.16,6.96-0.39,9.07-3.98c0.62-1.06,1.33-3.26,3.3-1.67c2.04,1.64-0.45,2.42-0.95,3.57
			C119.7,129.13,119.42,129.53,118.84,130.55z"/>
		<path class="st2" d="M204.55,131.43c4.05,1.29,7.8,1.6,10.86,3.78c3.4,2.42,3.32,5.18-0.13,7.52c-6.7,4.54-24.63,4.36-31.2-0.31
			c-3.87-2.75-3.78-5.66,0.41-7.94c3.4-1.86,7.16-2.6,11-2.81c3.3-0.17,6.07-1.02,7.94-4.13c0.67-1.12,1.67-3.6,3.72-1.67
			c1.78,1.69-0.7,2.42-1.31,3.55C205.54,129.97,205.17,130.48,204.55,131.43z"/>
		<path class="st1" d="M85.09,119c0.79-3.67-0.04-8.44,6.17-8.22c1.46,0.05,1.49-1.89,1.79-3.19c1.95-8.41,3.96-16.8,5.97-25.19
			c0.18-0.74,0.48-1.46,0.76-2.29c2.21,1.24,1,2.71,0.73,3.93c-1.85,8.25-3.79,16.49-5.68,24.73c-0.24,1.03-1.38,2.53,0.21,3.04
			c5.15,1.68,3.29,5.35,2.63,8.62c-0.57,2.83-1.44,5.61-2.8,8.31c-0.06-0.4-0.21-0.81-0.16-1.19c0.92-6.89,0.73-7.08-6.32-6.11
			c-0.11,0.02-0.34-0.8-0.52-1.22C87.34,118.88,85.76,120,85.09,119z"/>
		<path class="st3" d="M92.06,93.59c-0.72,3.22-0.89,5.73-2.68,8.78C88.67,98.64,88.36,96,92.06,93.59z"/>
		<path class="st4" d="M85.09,119c1.09,0.02,2.31-0.25,2.78,1.21c-1.45-0.3-2.69-0.24-2.75,1.69c-0.05,1.66-0.19,3.27-1.75,4.83
			C82.86,123.69,83.63,121.28,85.09,119z"/>
		<path class="st0" d="M126.5,227.12c-28.97,0-57.95-0.08-86.92,0.09c-3.94,0.02-4.63-1.32-4.59-4.87
			c0.2-17.32,0.25-34.64,0.12-51.96c-0.03-3.48,0.93-4.51,4.45-4.49c42.64,0.21,85.28,0.24,127.92,0.39
			c14.98,0.05,29.97,0.56,44.95,0.36c4.82-0.06,5.68,1.56,5.61,5.91c-0.27,16.82-0.3,33.64-0.12,50.46c0.04,3.91-0.99,5.03-4.97,5
			c-28.81-0.17-57.63-0.09-86.44-0.09C126.5,227.66,126.5,227.39,126.5,227.12z"/>
		<path class="st5" d="M113.69,143.32c-3.27-0.45-8.97,0.51-9.01-3.53c-0.04-4.45,5.63-3.73,9.3-3.96c2.5-0.16,4.99,0.03,7.35,1.05
			c1.27,0.54,2.6,1.18,2.57,2.7c-0.03,1.49-1.36,2.16-2.61,2.72C118.92,143.34,116.4,143.17,113.69,143.32z"/>
		<path class="st6" d="M200.02,142.17c-2.86-0.44-7.25,0.26-7.25-3.38c0-3.13,4.24-2.8,7.02-2.99c0.17-0.01,0.33-0.01,0.5,0
			c2.88,0.2,7.44-0.48,7.42,2.93C207.69,142.57,202.99,141.71,200.02,142.17z"/>
	</g>
</g>
</svg>
