<?xml version="1.0" encoding="utf-8"?>
<!-- Generator: Adobe Illustrator 25.0.0, SVG Export Plug-In . SVG Version: 6.00 Build 0)  -->
<svg version="1.1" id="Calque_1" xmlns="http://www.w3.org/2000/svg" xmlns:xlink="http://www.w3.org/1999/xlink" x="0px" y="0px"
	 viewBox="0 0 172 204" style="enable-background:new 0 0 172 204;" xml:space="preserve">
<style type="text/css">
	.st0{fill:#FEFEFE;}
	.st1{fill:#BCA857;}
	.st2{fill:#FEFEFD;}
</style>
<g>
	<g>
		<path class="st0" d="M70.01,3.09c29.14,0,58.27,0.06,87.41-0.08c2.98-0.01,3.58,0.6,3.58,3.58c-0.11,61.94-0.11,123.89,0,185.83
			c0.01,2.98-0.6,3.59-3.58,3.58c-49.61-0.12-99.23-0.12-148.84,0c-2.98,0.01-3.58-0.6-3.58-3.58C5.11,130.48,5.11,68.53,5,6.59
			C4.99,3.61,5.59,2.97,8.58,3c18.48,0.17,36.96,0.09,55.44,0.09c0.43,1.98-1.14,2.53-2.37,3.31c-8.81,5.61-12.07,13.95-9.28,23.93
			C55.24,40.58,58,50.86,60.16,61.3c0.24,1.14,0.47,2.28,0.65,3.43c0.28,1.81,0.85,3.97-0.88,5.09c-1.62,1.05-3.09-0.64-4.41-1.54
			c-8.53-5.78-17.48-8.7-27.78-5.05C17.31,66.93,10.92,74.16,8.07,84.71c-0.79,2.92-0.32,4.96,3.34,4.95
			c29.77-0.07,59.55,0.22,89.32-0.17c0.12,0,0.24-0.19,0.66-0.55c-2.77-3.13-6.27-5.35-9.58-7.76c-1.48-1.08-3.11-1.95-4.38-3.29
			c-1.69-1.78-2-3.85-0.74-5.94c1.23-2.03,3.24-2.19,5.29-1.57c3.05,0.93,5.75,2.59,8.4,4.33c1.5,0.98,2.8,2.28,4.96,3.2
			c0.53-3.85-1.02-6.78-2.61-9.58c-3.84-6.78-9.28-12.11-15.6-16.58c-1.76-1.25-3.71-2.27-5.13-3.94c-1.37-1.61-2.24-3.42-0.92-5.45
			c1.38-2.12,3.39-2.53,5.69-1.69c3.77,1.37,6.63,4.2,10.16,6.77c-1.52-9.12-3.94-17.39-7.85-25.17
			c-3.53-7.04-8.63-12.57-15.92-15.92C71.77,5.7,69.83,5.36,70.01,3.09z"/>
		<path class="st1" d="M70.01,3.09c3.78,2.86,8.61,3.82,12.13,7.35c8.1,8.12,11.67,18.38,14.61,29c0.96,3.48,1.48,7.08,2.35,11.37
			c-3.61-2.77-6.5-5.34-9.74-7.36c-2.19-1.36-5.23-4.08-7.39-0.67c-2.13,3.37,1.44,4.9,3.71,6.36c7.55,4.83,13.89,10.82,18.3,18.68
			c2.18,3.89,3.82,7.97,2.79,13.12c-4.65-2.95-8.34-6.66-13.07-8.68c-2.19-0.94-4.84-2.79-6.53,0.35c-1.55,2.88,0.75,4.54,2.99,5.89
			c5.28,3.18,9.93,7.12,14.21,11.54c-0.88,1.45-2.17,0.8-3.2,0.8c-30.1,0.05-60.2-0.04-90.3,0.15c-4.5,0.03-5.37-1.41-4.52-5.48
			c4.35-20.95,29.14-33.35,48.6-19.14c1.45,1.06,2.94,2.06,5.29,3.7c-0.97-8.41-3.19-15.6-4.73-22.92
			C54,39.85,50.59,32.95,50.2,25.48c-0.48-9.3,2.55-17.02,12.06-20.78c0.69-0.27,1.18-1.07,1.76-1.62
			C66.02,3.09,68.02,3.09,70.01,3.09z"/>
		<path class="st1" d="M82.63,97.07c23.97,0,47.94,0.06,71.92-0.06c3.83-0.02,4.68,0.67,3.76,4.78
			c-6.61,29.6-12.96,59.25-19.17,88.93c-0.7,3.34-1.91,4.28-5.19,4.27c-34.29-0.1-68.59-0.09-102.88-0.01
			c-3.17,0.01-4.43-0.73-5.14-4.22c-6.08-29.56-12.4-59.07-18.9-88.54c-0.94-4.27-0.27-5.29,4.19-5.25
			C35.01,97.18,58.82,97.07,82.63,97.07z"/>
		<path class="st1" d="M138.58,90.87c-5.49,0-10.98-0.22-16.45,0.08c-3.71,0.2-4.47-1.31-4.28-4.63c0.38-6.77,1.88-13.11,5.81-18.74
			c2.4-3.44,4.12-7.13,4.8-11.36c0.57-3.49,1.55-6.7-2.83-8.67c-1.74-0.78-2.22-2.98-1.45-4.85c0.79-1.91,2.3-3.37,4.52-3.39
			c6.98-0.07,13.97-0.11,20.94,0.04c2.11,0.05,3.79,1.35,4.27,3.57c0.46,2.11,0.08,4.32-2.06,5.1c-3.49,1.27-3.07,3.9-2.72,6.48
			c0.65,4.81,2.24,9.32,5,13.36c4.31,6.32,4.64,13.69,5.46,20.92c0.28,2.45-1.65,2.05-3.05,2.06
			C150.55,90.89,144.56,90.87,138.58,90.87z"/>
		<path class="st1" d="M30.78,53.16c-15.77-1.28-21.24-5.7-24.22-19.05c-0.58-2.57-0.47-3.85,2.68-4.24
			c15.77-1.92,23.7,7.07,26.71,21.08C36.94,55.55,32.23,52.22,30.78,53.16z"/>
		<path class="st0" d="M83.94,102c21.8,0,43.6,0.12,65.39-0.1c4.38-0.04,5.05,1.49,4.17,5.22c-6.25,26.66-12.48,53.33-18.58,80.03
			c-0.7,3.06-2.12,3.84-5.1,3.83c-31.28-0.1-62.56-0.1-93.85,0c-2.78,0.01-4.2-0.66-4.82-3.54c-5.71-26.45-11.54-52.87-17.28-79.31
			c-1.33-6.11-1.22-6.13,4.67-6.13C40.35,102,62.15,102,83.94,102z"/>
		<path class="st1" d="M63.89,137.37c-0.02-8.88,4.98-16.15,12.73-19.16c7.24-2.81,15.63-0.8,20.97,5.02
			c5.71,6.22,7.2,14.2,3.29,21.65c-4.55,8.67-9.64,17.05-14.46,25.58c-1.8,3.18-3.93,3.75-5.91,0.42
			c-5.43-9.13-10.96-18.21-15.52-27.82C64.05,141.06,63.83,138.91,63.89,137.37z"/>
		<path class="st2" d="M91.91,136.29c0.12,4.55-3.81,8.6-8.46,8.72c-4.78,0.13-8.54-3.53-8.62-8.39c-0.09-4.89,3.49-8.65,8.29-8.72
			C87.76,127.85,91.8,131.7,91.91,136.29z"/>
	</g>
</g>
</svg>
