<?xml version="1.0" encoding="utf-8"?>
<!-- Generator: Adobe Illustrator 25.0.0, SVG Export Plug-In . SVG Version: 6.00 Build 0)  -->
<svg version="1.1" id="Calque_1" xmlns="http://www.w3.org/2000/svg" xmlns:xlink="http://www.w3.org/1999/xlink" x="0px" y="0px"
	 viewBox="0 0 214 207" style="enable-background:new 0 0 214 207;" xml:space="preserve">
<style type="text/css">
	.st0{fill:#FEFEFE;}
	.st1{fill:#BBA754;}
	.st2{fill:#BBA755;}
	.st3{fill:#BCA755;}
	.st4{fill:#BCA856;}
	.st5{fill:#FEFEFD;}
	.st6{fill:#FDFCFB;}
	.st7{fill:#FBFBF7;}
	.st8{fill:#C2AF65;}
	.st9{fill:#C2AF64;}
	.st10{fill:#BBA855;}
	.st11{fill:#B9A34D;}
	.st12{fill:#BDAA5A;}
	.st13{fill:#BDA959;}
	.st14{fill:#C0AD60;}
	.st15{fill:#B9A44F;}
</style>
<g>
	<g>
		<path class="st0" d="M0,206.9C0,137.97,0,69.03,0,0.1c69.97,0,139.94,0.03,209.9-0.1c3.42-0.01,4.1,0.67,4.09,4.09
			c-0.13,66.27-0.13,132.54,0,198.81c0.01,3.42-0.67,4.1-4.09,4.09C139.94,206.87,69.97,206.9,0,206.9z"/>
		<path class="st1" d="M108.77,197.99c-10.49,0-20.97,0.06-31.46-0.02c-10.64-0.08-15.99-4.63-17.42-15.07
			c-0.34-2.47-1.93-3.29-3.54-4.38c-13.62-9.15-24.95-20.39-32.22-35.33c-5.26-10.81-7.36-22.33-7.83-34.24
			c-0.17-4.23,1.1-6.23,5.97-6.13c15.64,0.31,31.3-0.06,46.94,0.22c4.81,0.09,7.06-0.86,6.65-6.21c-0.37-4.81,1.94-9.03,4.82-12.81
			c2.25-2.96,4.52-3.36,7.34-0.37c5.14,5.45,10.65,10.53,15.77,15.99c2.38,2.54,4.92,3.37,8.34,3.35
			c27.63-0.12,55.27,0.03,82.9-0.16c4.78-0.03,6.2,1.31,6.17,6.23c-0.2,29.69-14.22,51.52-37.9,68.02c-3.07,2.14-5.25,4.16-5.9,8.4
			c-1.23,8.09-6.86,12.26-15.65,12.43c-10.98,0.2-21.97,0.05-32.96,0.05C108.77,197.97,108.77,197.98,108.77,197.99z"/>
		<path class="st2" d="M19.74,69.22c-0.15-7.27,2.32-13.07,7.14-17.9c2.82-2.83,5.57-5.74,8.53-8.41c9.3-8.43,24.88-8.11,33.69,0.48
			c3.36,3.27,4.06,7,1.58,10.79c-2.33,3.56-5.87,4.59-10.07,2.95c-1.51-0.59-3.45-2.6-4.77-0.21c-1.04,1.89,1.26,2.78,2.37,3.83
			c3.38,3.2,6.91,6.25,10.33,9.41c6.15,5.7,6.15,7.75,0.1,13.81c-1.29,1.3-2.59,2.59-3.91,3.85c-4.92,4.71-7.74,4.55-11.89-0.68
			c-3.21-4.04-6.37-8.12-9.64-12.1c-0.87-1.05-1.58-3.06-3.42-2.13c-1.81,0.91-0.79,2.53-0.28,3.93c1.9,5.24,0.88,9.15-2.89,11.25
			c-3.8,2.12-7.83,1.03-11.37-3.16C21.29,80.29,19.48,74.89,19.74,69.22z"/>
		<path class="st3" d="M135.09,80.27c-1.96,0.05-4.76-0.84-6.6-3.1c-2.2-2.71-3.98-1.95-6.31-0.36c-3.44,2.34-7.3,4.1-10.55,6.66
			c-4.33,3.42-7.39,3.26-11.32-1c-3.21-3.48-3.92-5.89-1.01-9.73c2.9-3.83,5.08-8.21,7.81-12.17c1.51-2.18,1.34-3.43-0.6-5.38
			c-4.86-4.88-4.85-11.86-0.4-16.59c4.45-4.74,11.93-4.97,17.05-0.31c1.45,1.32,2.77,1.96,4.75,2.14
			c9.51,0.86,14.4,5.85,14.97,15.37c0.13,2.14,1.23,3.23,2.46,4.58c3.59,3.96,4.5,8.5,2.18,13.38
			C145.28,78.47,141.22,80.36,135.09,80.27z"/>
		<path class="st4" d="M183.19,13.14c1.52,0.19,2.32,1.13,2.63,2.56c1.47,6.79,5.43,11.13,12.31,12.7c1.5,0.34,2.96,0.93,2.9,2.85
			c-0.06,1.8-1.28,2.39-2.91,2.8c-6.51,1.64-10.68,5.71-12.2,12.32c-0.37,1.61-1.06,2.81-2.9,2.81c-1.95-0.01-2.39-1.52-2.77-2.98
			c-1.71-6.53-5.85-10.59-12.39-12.16c-1.63-0.39-2.84-1.06-2.78-2.89c0.05-1.58,1.23-2.35,2.57-2.64
			c7.08-1.53,11.22-5.9,12.78-12.9C180.72,14.21,181.64,13.26,183.19,13.14z"/>
		<path class="st4" d="M173.97,92.68c-1.71-0.14-2.65-1.22-2.94-2.83c-1.25-6.87-5.77-10.61-12.08-12.53
			c-1.52-0.46-3.01-0.68-3.09-2.59c-0.08-2.19,1.52-2.46,3.24-2.97c6.15-1.83,10.45-5.63,11.84-12.16c0.34-1.59,1.05-3.03,2.74-3.1
			c2.03-0.08,2.64,1.58,3.04,3.32c1.49,6.48,5.85,10.21,12,12c1.55,0.45,3.02,0.75,3.12,2.59c0.12,2.21-1.61,2.41-3.29,2.93
			c-6.09,1.89-10.55,5.51-11.83,12.14C176.42,91.07,175.73,92.29,173.97,92.68z"/>
		<path class="st0" d="M155,108.06c12.15,0,24.3,0.12,36.45-0.07c3.52-0.05,4.65,0.98,4.41,4.54c-0.98,14.62-5.3,27.98-14.1,39.81
			c-1.53,2.05-3.28,2.93-5.89,2.92c-14.65-0.1-29.3-0.15-43.94,0.02c-3.48,0.04-4.61-1.26-4.93-4.53
			c-0.51-5.11-2.99-9.43-6.23-13.37c-2.03-2.47-3.92-2.58-6.2-0.26c-5.13,5.22-10.42,10.29-15.52,15.54
			c-1.75,1.8-3.61,2.6-6.15,2.59c-16.98-0.08-33.96-0.08-50.93,0c-2.56,0.01-4.37-0.69-5.92-2.81
			c-8.72-11.86-13.4-25.06-14.06-39.79c-0.18-3.93,1.19-4.7,4.8-4.65c15.14,0.18,30.29,0.17,45.44,0.01
			c3.2-0.03,5.01,0.89,6.71,3.75c7.4,12.46,23.41,15.72,35.07,7.41c3.18-2.27,5.53-4.69,1.44-8.26c-0.59-0.52-1.48-1.11-1.03-2.03
			c0.67-1.35,2.06-0.79,3.13-0.79C130.03,108.04,142.51,108.05,155,108.06z"/>
		<path class="st0" d="M108.92,192.23c-10.82,0-21.64,0.04-32.46-0.01c-7.45-0.04-11.03-3.35-11.27-10.87
			c-0.09-2.88-1.15-4.58-3.5-6.01c-5.27-3.2-10.11-7.01-14.68-11.14c-0.77-0.69-2.32-1.19-1.66-2.67c0.5-1.11,1.74-0.64,2.67-0.64
			c12.48-0.01,24.97,0,37.45,0.05c1.08,0,2.58-0.62,3.17,0.65c0.73,1.58-1.03,2.22-1.82,3.15c-0.96,1.14-2.1,2.13-3.16,3.19
			c-5.08,5.07-4.99,6.18,0.86,10.1c14.9,9.98,34.46,4.15,40.98-12.52c1.4-3.57,3.02-4.75,6.79-4.68
			c12.31,0.24,24.63,0.07,36.95,0.09c1.09,0,2.6-0.68,3.15,0.6c0.7,1.63-1.1,2.18-2,3c-4.43,4.06-9.24,7.63-14.37,10.73
			c-2.42,1.46-3.34,3.22-3.45,6.04c-0.33,7.86-3.7,10.9-11.7,10.93C130.22,192.26,119.57,192.23,108.92,192.23z"/>
		<path class="st5" d="M121.85,155.15c-0.04,16.4-16.94,27.22-30.87,20.31c-3.18-1.58-4.41-2.82-1.18-5.92
			c8.27-7.91,16.36-16.02,24.29-24.28c3.05-3.18,4.56-2.15,6.03,1.15C121.42,149.35,122.09,152.39,121.85,155.15z"/>
		<path class="st0" d="M99.46,117.99c-12.82-0.05-22.13-13.43-17.48-25.11c1.79-4.49,2.69-4.72,6.02-1.41
			c6.36,6.32,12.69,12.68,19.04,19.03c3.93,3.93,3.78,4.49-1.23,6.61C103.71,117.99,101.6,117.94,99.46,117.99z"/>
		<path class="st0" d="M25.03,69.04c0-0.5-0.02-1,0-1.5c0.69-14.08,20.84-28.74,33.41-24.3c1.09,0.39,2.29,0.73,3.16,1.44
			c2.02,1.65,6.14,2.55,4.51,6.04c-1.46,3.13-4.41,0.65-6.58-0.09c-3.56-1.21-6.28-0.07-8.22,2.82c-2.11,3.13-1.92,6.38,0.85,9.08
			c3.93,3.83,7.87,7.68,12.09,11.17c2.89,2.39,3.32,4.23,0.19,6.58c-1.19,0.89-2.24,2.01-3.21,3.14c-1.81,2.11-3.16,1.72-4.72-0.38
			c-3.08-4.14-6.27-8.19-9.53-12.18c-3.32-4.06-6.96-5.03-10.41-2.68c-3.71,2.53-4.44,6-2.46,10.04c0.9,1.85,1.85,3.98-0.59,5.19
			c-2.16,1.08-3.22-1.07-4.35-2.41C26.31,77.63,25.02,73.8,25.03,69.04z"/>
		<path class="st0" d="M137.7,55.95c-1.8,3.52-0.32,5.95,3.3,8.03c2.43,1.4,2.39,4.34,1.72,6.78c-0.65,2.36-2.43,3.89-5.02,4.22
			c-2.99,0.38-5.6-0.71-6.58-3.38c-1.84-5.05-4.41-4.24-7.91-1.89c-4.68,3.15-9.56,5.99-14.31,9.03c-1.48,0.95-2.69,1.73-4.38,0.18
			c-1.79-1.64-0.81-2.83,0.12-4.27c3.13-4.89,6.15-9.85,9.32-14.71c2.12-3.25,3.13-5.8-1.88-7.47c-2.62-0.87-4.13-3.44-3.78-6.4
			c0.34-2.91,2.23-4.81,5.02-5.58c2.9-0.8,5.5,0.19,6.78,2.82c1.63,3.37,4.23,2.95,7.12,2.83C133.3,45.85,137.67,49.88,137.7,55.95z
			"/>
		<path class="st6" d="M190.03,31.11c-2.53,2.38-4.6,5.88-7.01,6.13c-2.09,0.22-4.45-3.39-5.96-5.93c-0.43-0.73,5.3-6.51,5.95-6.04
			C185.37,26.98,187.51,28.98,190.03,31.11z"/>
		<path class="st7" d="M180.4,74.21c-0.12,1.24-6.48,6.95-6.85,6.6c-2.14-2.02-4.23-4.11-6.2-6.29c-0.34-0.37,6.18-6.61,6.58-6.26
			C176.23,70.24,178.41,72.36,180.4,74.21z"/>
		<path class="st3" d="M173.18,130.4c-0.06,8.84-6.23,14.82-15.2,14.73c-8.23-0.08-14.99-6.8-14.98-14.88
			c0.01-8.01,7.36-15.29,15.39-15.26C166.83,115.02,173.24,121.7,173.18,130.4z"/>
		<path class="st3" d="M74.27,133.42c-0.04,8.84-6.31,14.88-15.31,14.75c-8.4-0.11-14.75-6.56-14.77-15.01
			c-0.02-7.93,7.07-15.06,15-15.09C67.67,118.05,74.32,124.81,74.27,133.42z"/>
		<path class="st8" d="M40.69,117.9c0.2,2.51-1.26,2.97-3.38,2.96c-2.49-0.02-2.32-1.63-2.41-3.33c-0.12-2.34,1.22-2.58,3.09-2.63
			C40.22,114.85,40.92,115.89,40.69,117.9z"/>
		<path class="st9" d="M183.22,120.8c-2.48,0.24-3.1-1.09-3.1-3.28c-0.01-2.33,1.28-2.57,3.15-2.62c2.26-0.06,2.73,1.06,2.74,3.02
			C186.01,119.94,185.41,121.1,183.22,120.8z"/>
		<path class="st10" d="M130.64,123.89c-2.19,0.27-2.84-0.86-2.83-2.9c0-2,0.57-3.04,2.8-2.99c1.96,0.04,2.58,0.9,2.56,2.71
			C133.14,122.49,133.14,124.13,130.64,123.89z"/>
		<path class="st11" d="M99.06,136.67c0.26,2.01-0.89,2.42-2.64,2.45c-1.88,0.03-2.57-0.67-2.6-2.57c-0.04-2.2,0.9-2.82,2.94-2.77
			C98.84,133.82,99.22,134.95,99.06,136.67z"/>
		<path class="st12" d="M74.64,170.58c0.18,2.37-1.31,2.52-3.14,2.56c-2.33,0.06-2.58-1.23-2.58-3.1c0-2.14,1.3-2.21,2.88-2.29
			C73.9,167.65,74.87,168.48,74.64,170.58z"/>
		<path class="st13" d="M142.7,173.59c0.19,2.47-1.43,2.49-3.19,2.57c-2.35,0.11-2.61-1.21-2.6-3.09c0.01-2.16,1.32-2.22,2.92-2.27
			C141.85,170.73,142.98,171.42,142.7,173.59z"/>
		<path class="st12" d="M113.11,164.89c-0.84,1.79-2.2,3.81-3.44,3.44c-2.3-0.68-4.24-2.8-5.05-5.03c-0.34-0.94,1.76-3.34,3.24-3.09
			C110.33,160.63,111.61,163.08,113.11,164.89z"/>
		<path class="st14" d="M117.95,155.06c0.22,2.07-0.69,2.92-2.83,2.94c-2.07,0.01-2.97-0.67-2.99-2.84
			c-0.02-2.25,0.65-3.32,3.1-3.25C117.48,151.99,118.11,153.07,117.95,155.06z"/>
		<path class="st15" d="M102.12,170.38c0.19,1.81-0.51,2.72-2.44,2.69c-1.65-0.02-2.81-0.24-2.82-2.33
			c-0.02-1.98,0.49-3.02,2.71-2.94C101.39,167.87,102.31,168.49,102.12,170.38z"/>
		<path class="st5" d="M148.94,130.41c-0.06-5.43,3.91-9.6,9.17-9.63c5.44-0.03,9.67,3.91,9.79,9.11c0.13,5.5-4.1,9.93-9.54,9.98
			C153.15,139.91,148.99,135.74,148.94,130.41z"/>
		<path class="st5" d="M49.98,133.32c0.01-5.51,3.81-9.33,9.32-9.35c5.42-0.02,9.58,3.93,9.63,9.16c0.05,5.45-4.24,9.76-9.72,9.76
			C54.07,142.9,49.97,138.65,49.98,133.32z"/>
	</g>
</g>
</svg>
