<svg id="Calque_1" data-name="Calque 1" xmlns="http://www.w3.org/2000/svg" viewBox="0 0 250 250"><defs><style>.cls-1{fill:#fff;}.cls-2{fill:none;}</style></defs><path class="cls-1" d="M158.3,83.14c-3.93,0-7.87,0-11.8,0a12.44,12.44,0,0,1-3.58-.6c-4.91-1.65-9.76-3.5-14.7-5.06a23.14,23.14,0,0,0-5.3-.52c-.72,0-.81.52-.83,1.1-.1,2.45-.11,2.45-2.58,2.45-4.66,0-9.32,0-14,0-1.78,0-3.34.32-4.13,2.21a1.23,1.23,0,0,1-.94.44c-7.18,0-14.36,0-21.53,0-2,0-3.61-2-3.58-4.28a26.2,26.2,0,0,1,3.52-12.89,31.22,31.22,0,0,1,9.48-10,57.78,57.78,0,0,1,24.13-9.58,72.83,72.83,0,0,1,19.27-.88c11.2,1.15,21.8,4.15,31,11,6.35,4.69,10.72,10.69,11.91,18.69A27.9,27.9,0,0,1,175,79a3.84,3.84,0,0,1-4.08,4.11c-4.2,0-8.4,0-12.6,0Z"/><path class="cls-1" d="M88.62,117.26c3.63,0,7.25,0,10.88,0,1.1,0,1.47.4,1.46,1.48,0,6.42,0,12.83,0,19.25,0,1.4-.14,1.55-1.48,1.54-4.65,0-9.31,0-14,0A10.92,10.92,0,0,1,75,131.08a10.46,10.46,0,0,1-.29-2.37c0-2.71,0-5.43,0-8.14,0-2.38,1-3.3,3.37-3.3H88.62Z"/><path class="cls-1" d="M142.07,139.25l4.75-1.64c2.62-.89,2.5-.2,2.48-3.42,0-5.3,0-10.61-.08-15.92,0-.91.54-1,1.2-1h17.07c1.57,0,3.14,0,4.7,0,2,.06,2.78.88,2.77,2.84,0,3.13,0,6.25-.09,9.38-.11,4.91-4.58,9.68-10.41,9.83-7.25.18-14.51.06-21.77.06A3.19,3.19,0,0,1,142.07,139.25Z"/><path class="cls-1" d="M123.74,142.42c0-3.89,0-7.63,0-11.37q-.06-25.67-.14-51.32c0-1,.37-1.41,1.26-1.28a23.86,23.86,0,0,1,4.24.79c5.82,2,11.59,4.06,17.39,6.06A1.55,1.55,0,0,1,147.74,87q0,23.6,0,47.2a1.76,1.76,0,0,1-1.37,1.93c-6.12,2-12.22,4.07-18.33,6.12A6.94,6.94,0,0,1,123.74,142.42Zm3.16-60.59v57.45c.51-.13.88-.19,1.23-.31,5.15-1.72,10.3-3.47,15.47-5.16a1.25,1.25,0,0,0,1-1.44q0-21.7,0-43.41a1.84,1.84,0,0,0-1.51-2l-14.5-4.76C128.06,82.08,127.55,82,126.9,81.83Z"/><path class="cls-1" d="M167.12,194.21a1.33,1.33,0,0,1-1.71-1.32c-.18-2-.3-4-.43-5.93,0-.37,0-.73,0-1.35-1.45,1.29-2.71,2.44-4,3.54a3.91,3.91,0,0,1-1.34.82,1.46,1.46,0,0,1-1.82-1.38,3.85,3.85,0,0,0-.24-1.38c-.83,1-1.66,2-2.51,3-.29.35-.82,1-.95.9a7.23,7.23,0,0,1-1.47-1.26l-1,.81c-2.12,1.82-3.64,1.42-4.53-1.3-.45.48-.84.93-1.26,1.36a17.08,17.08,0,0,1-1.87,1.84,1.6,1.6,0,0,1-1.36.17,1.44,1.44,0,0,1-.51-1.13,6.75,6.75,0,0,1,1.43-4.14,2.66,2.66,0,0,1,3.11-1.06c2.42.64,2.43.59,2.38,3.1,0,.18,0,.37.08.72a4.78,4.78,0,0,0,1-.53,22.34,22.34,0,0,0,3.27-3.17c.94-1.29,1.06-1.34,2.36-.28,1-.66,1.88-1.41,2.9-2a1.7,1.7,0,0,1,1.52,0c.3.24.27,1,.22,1.5a10.18,10.18,0,0,1-.58,1.87c1.88-1.31,3.5-2.39,5.05-3.56.3-.22.35-.82.43-1.25.16-.94.27-1.88.42-3-1.12-.15-2.21-.28-3.28-.45a20.37,20.37,0,0,1-7.41-2.91c-.77-.47-1-1-.47-1.75a13.22,13.22,0,0,0,1-1.81c.41-.91.91-1,1.68-.39a15,15,0,0,0,9,2.95,11.72,11.72,0,0,0,3.47-.56,3.29,3.29,0,0,0,.49-6,37.66,37.66,0,0,0-4.36-1.67c-2-.66-4-1.15-5.88-1.87-2.79-1-4.66-2.9-4.71-6.08-.06-3.48,1.13-6.35,4.38-7.93a14.63,14.63,0,0,1,12.21-.29,29.27,29.27,0,0,1,3,1.49,1.06,1.06,0,0,1,.43,1.71,14.47,14.47,0,0,0-.79,1.38c-.7,1.33-.71,1.34-1.93.54a12,12,0,0,0-9.18-1.81,3.71,3.71,0,0,0-3.13,2.83,3.15,3.15,0,0,0,1.91,3.94c1.81.69,3.72,1.12,5.56,1.72A50.74,50.74,0,0,1,173,164.7c5.74,2.59,4.86,10.76.75,13.05a19.13,19.13,0,0,1-4.78,1.74c-1.06.26-1.51.68-1.56,1.72,0,.63.15.89.81.94a20.9,20.9,0,0,1,2.48.37,1.76,1.76,0,0,1,.83.34,2.68,2.68,0,0,1,.41.83,3.45,3.45,0,0,1-.81.17c-1-.07-1.89-.18-2.84-.27s-1.48.38-1.46,1.38c.07,2.7.13,5.4.2,8.1C167,193.41,167.07,193.74,167.12,194.21Z"/><path class="cls-1" d="M127.17,179.41a42,42,0,0,1-4.54-.06c-.51-.06-1.07-.7-1.39-1.2q-2.38-3.71-4.63-7.5a2.56,2.56,0,0,0-2.62-1.42,31.61,31.61,0,0,1-3.77,0c-1,0-1.27.36-1.26,1.28,0,2.52,0,5,0,7.55,0,1.05-.31,1.5-1.38,1.39a16,16,0,0,0-1.83,0c-1.32,0-1.53-.14-1.53-1.49,0-3,0-6.11,0-9.16,0-5.73,0-11.45,0-17.18,0-1.42.08-1.52,1.47-1.51,4.08,0,8.17-.07,12.24.15,3.75.2,6.66,3,7.78,7.05a9.37,9.37,0,0,1-3.14,9.88,5.87,5.87,0,0,1-.67.43c-1.51.8-1.51.8-.63,2.22q2.67,4.28,5.32,8.55C126.8,178.63,126.92,178.9,127.17,179.41Zm-18.38-19.89h0c0,1.49,0,3,0,4.47,0,1,.42,1.37,1.37,1.36,2,0,4,0,5.95,0a5.2,5.2,0,0,0,5.47-5.45c.06-3.44-1.94-5.66-5.27-5.76-2.13-.06-4.27,0-6.41,0-.87,0-1.13.37-1.11,1.17C108.82,156.7,108.79,158.11,108.79,159.52Z"/><path class="cls-1" d="M81.66,150a64.8,64.8,0,0,1,7.52.62c5.76,1.12,8.65,5.15,9.95,10.56a16.14,16.14,0,0,1-.46,9c-1.91,5.66-5.89,8.82-11.86,9.14-3.62.2-7.25.11-10.88.16-.82,0-1.14-.32-1.14-1.16q0-13.45,0-26.92c0-1,.45-1.32,1.38-1.3,1.84,0,3.67,0,5.5,0Zm-2.41,14.85c0,3.06,0,6.11,0,9.17,0,1.36.14,1.49,1.53,1.49,1.71,0,3.43,0,5.15,0a8.27,8.27,0,0,0,7.22-4.11,12.57,12.57,0,0,0,.55-12.16c-1.46-3.31-4.24-4.88-7.82-5-1.64-.06-3.28,0-4.92,0s-1.71,0-1.71,1.76Z"/><path class="cls-1" d="M206.67,164.68c0-4.36,0-8.71,0-13.06,0-1.16.43-1.56,1.54-1.55q8.53,0,17.07,0c.86,0,1.24.29,1.22,1.2-.08,3.4.45,3-3,3s-7.1,0-10.65-.05c-1.07,0-1.51.28-1.47,1.42.08,1.79,0,3.59,0,5.38,0,1.41.15,1.56,1.6,1.56,3.4,0,6.8,0,10.19,0,1,0,1.34.32,1.31,1.33-.07,2.58,0,2.57-2.65,2.55-3,0-6,0-9.05,0-1,0-1.43.26-1.39,1.36.07,2,0,4,0,6,0,1.43.15,1.58,1.57,1.57l12.26-.06c1.56,0,1.61.05,1.59,1.62-.05,2.69.57,2.6-2.67,2.6h-15.7c-1.68,0-1.79-.11-1.79-1.85Z"/><path class="cls-1" d="M131.52,164.82V151.64c0-1.43.1-1.54,1.46-1.54,5.61,0,11.22,0,16.84,0,1.09,0,1.45.34,1.42,1.45-.09,2.78,0,2.79-2.86,2.78-3.58,0-7.18,0-10.76-.05-1.05,0-1.42.35-1.38,1.4.07,1.83,0,3.67,0,5.5,0,1.38.09,1.46,1.54,1.45,3.4,0,6.8,0,10.19,0,1,0,1.34.37,1.3,1.35-.12,2.54.53,2.54-2.53,2.52s-6,0-9-.07c-1.05,0-1.52.25-1.47,1.41.08,2.06,0,4.12,0,6.18,0,1,.34,1.35,1.34,1.34,4.2-.05,8.4,0,12.6-.06,1.44,0,1.49,0,1.48,1.46,0,2.76,0,2.76-2.8,2.76l-15.81,0c-1.48,0-1.52,0-1.52-1.56Z"/><path class="cls-1" d="M190.92,149.9a16.61,16.61,0,0,1,9,2.59c.77.47,1,1,.47,1.78s-.84,2-1.55,2.27c-.56.22-1.57-.65-2.37-1.06a11.72,11.72,0,0,0-8-1.11,3.72,3.72,0,0,0-3.18,3.28,3.23,3.23,0,0,0,2.52,3.72c2.2.75,4.48,1.26,6.69,1.94a29,29,0,0,1,3.73,1.44c5.58,2.64,4.57,10.43.95,12.88a13.32,13.32,0,0,1-7.48,2.1,20.85,20.85,0,0,1-11.31-3.15c-.9-.55-1.14-1.14-.52-2.05s.86-2.07,1.53-2.27,1.63.71,2.44,1.16a15.28,15.28,0,0,0,8.91,2c1.73-.14,3.33-.64,4.13-2.4a3,3,0,0,0-1.29-4,27.91,27.91,0,0,0-4.53-1.84c-1.91-.66-3.88-1.12-5.77-1.81-2.58-.94-4.55-2.51-4.79-5.52-.28-3.46.69-6.35,3.73-8.29A12.77,12.77,0,0,1,190.92,149.9Z"/><path class="cls-1" d="M45.89,179.45c.19-.6.29-1,.42-1.31,3.43-8.81,6.88-17.62,10.26-26.45a2.17,2.17,0,0,1,2.49-1.6c2.62.13,2.63.08,3.57,2.49l9.8,25.28c.17.45.28.92.46,1.5a29.35,29.35,0,0,1-4-.06c-.48-.07-1-.76-1.26-1.29-.75-1.71-1.4-3.47-2-5.23a1.7,1.7,0,0,0-1.86-1.31c-2.87,0-5.73,0-8.6,0a1.8,1.8,0,0,0-1.94,1.39c-.62,1.77-1.34,3.49-1.94,5.26a1.75,1.75,0,0,1-2,1.36C48.16,179.4,47.11,179.45,45.89,179.45Zm13.66-23.93-.38,0-4.73,12.62h8.47c1.24,0,1.33-.12.89-1.33-1.26-3.47-2.54-6.92-3.82-10.38C59.87,156.1,59.69,155.81,59.55,155.52Z"/><path class="cls-1" d="M87.6,103.13c4,0,8,0,12,0,1,0,1.36.31,1.33,1.31,0,1.86,0,3.73,0,5.6,0,1-.34,1.41-1.32,1.4l-23.69,0a7,7,0,0,1-1.58-.19A4.09,4.09,0,0,1,71.22,107,4,4,0,0,1,75,103.22c1.11-.08,2.21-.06,3.32-.06H87.6Z"/><path class="cls-1" d="M162.48,111.27c-4,0-8,0-12,0-1,0-1.23-.39-1.22-1.28,0-1.91,0-3.82-.06-5.73,0-1,.33-1.25,1.27-1.24q10.31.09,20.62.11c1,0,2.06-.05,3.09-.09a4.08,4.08,0,0,1,4.33,4.06,3.94,3.94,0,0,1-4.08,4.14c-4,0-7.94,0-11.92,0Z"/><path class="cls-1" d="M87.46,97.3c-4,0-8,0-12,0a4,4,0,0,1-4-5,3.7,3.7,0,0,1,3.44-3c1.94-.09,3.89-.09,5.84-.09q9.1,0,18.22,0c2,0,2,0,2.06,2,0,1.57,0,3.13,0,4.7,0,1.09-.39,1.49-1.48,1.48-4,0-8,0-12,0Z"/><path class="cls-1" d="M162.61,89.2h11.9a4,4,0,0,1,3.08,6.54,4.33,4.33,0,0,1-3.65,1.55c-3.74,0-7.48,0-11.22,0H150.59c-1.31,0-1.42-.14-1.39-1.46.05-1.83.1-3.66.08-5.49,0-.9.33-1.21,1.2-1.2,4,0,8.09,0,12.13,0Z"/><path class="cls-1" d="M102.63,111.8V86.59a16.39,16.39,0,0,1,.05-1.72c.24-2.06,1.17-2.87,3.24-2.87,4.36,0,8.71,0,13.07,0,.93,0,1.53.14,1.47,1.31-.08,1.36-.19,1.58-1.48,1.59H107.64c-1.82,0-1.83,0-1.83,1.88q0,25.22,0,50.42v.69c0,1.71-1.15,2.5-2.72,1.75a1.57,1.57,0,0,1-.53-1.22c0-3.37,0-6.73,0-10.09V111.8Z"/><path class="cls-1" d="M23.52,164.77c0-4.43,0-8.85,0-13.28,0-1.06.35-1.47,1.39-1.4a17.46,17.46,0,0,0,2.17,0c.88,0,1.25.34,1.23,1.22,0,1.53,0,3.06,0,4.58l0,17.87c0,1.41.12,1.53,1.6,1.53l12.36,0c1.64,0,1.7.07,1.69,1.65,0,2.56,0,2.55-2.59,2.55h-16c-1.64,0-1.74-.11-1.74-1.76Z"/><path class="cls-1" d="M89.47,201.6l-.31,3.4c-1.41-.28-1.64-.68-1.57-1.91a7.92,7.92,0,0,0-.18-2.67c-.14-.48-.91-.75-1.29-1.2-.25-.29-.53-.89-.4-1.08s.87-.72,1.13-.6c1.22.53,1.42-.18,1.69-1.09q1.09-3.73,2.33-7.41c.16-.48.15-1.4,1.11-1s.84,1,.54,1.88c-.7,1.89-1.31,3.81-2,5.73a8.15,8.15,0,0,0-.17,1c4.37-2.33,8.1-5.06,10-9.63.82-1.94-.06-3-2.14-2.68a23.19,23.19,0,0,0-14.19,8.14c-.48.57-.49,1.54-.8,2.65-.57.23-1-.32-1.28-1.1a3,3,0,0,1,.89-3,23.53,23.53,0,0,1,11.58-7.43A12.73,12.73,0,0,1,99,183c2.84.28,4,2.46,3,5.14a14.59,14.59,0,0,1-5.25,6.51c-1.94,1.4-4.08,2.53-6.12,3.8a4.76,4.76,0,0,0-.75.74,4.91,4.91,0,0,0,.78.6c3.59,1.7,7.26,3,11.33,2.7.72-.06,1.43-.17,2.21-.27.29,1-.24,1.47-1.06,1.64a14.46,14.46,0,0,1-6.92-.15C94,203.13,91.8,202.35,89.47,201.6Z"/><path class="cls-1" d="M113.73,186.09c-2.45.79-4.7,1.48-6.93,2.25a1.53,1.53,0,0,1-2.16-.84,5.85,5.85,0,0,1,1-.52c2.37-.73,4.73-1.49,7.12-2.12,1-.27,1.73-.62,1.87-1.79a9,9,0,0,1,.62-2.2c.12-.3.51-.49.77-.74.32.41.91.82.9,1.21a13.4,13.4,0,0,1-.63,2.67,25.46,25.46,0,0,1,3.08-.41c1.74,0,3.49.05,5.24.14a2.48,2.48,0,0,1,1.13.49c.17.12.2.44.29.67-.22.08-.47.27-.67.23-2.76-.65-5.46,0-8.17.38a1.9,1.9,0,0,0-1.75,1.65c-1.26,5.39-2,10.8-1,16.31-1,.31-1.62,0-1.74-1.12-.21-1.78-.3-3.57-.42-5.36,0-.55,0-1.11,0-1.79-1.08.58-1.71,1.17-1.29,2.4a2.05,2.05,0,0,1-.17,1.22c-.4,1.21-1.28,1.73-2.24,1.37a1.82,1.82,0,0,1-1-2.57c.27-.64.66-1.23,1-1.85l-.21-.25a6.87,6.87,0,0,0-.91.55c-1.6,1.3-3.16,2.64-4.78,3.9a3.85,3.85,0,0,1-1.66.71,1.62,1.62,0,0,1-2-1.66,5.42,5.42,0,0,1,2.28-4.64,1.5,1.5,0,0,1,2.17.21,1.26,1.26,0,0,1-.19,1.84c-.53.55-1.14,1-1.71,1.52l-.87.78.17.25a6.5,6.5,0,0,0,1.07-.49q1.84-1.26,3.65-2.57c.91-.66,1.79-1.3,1.32-2.72-.08-.27.57-1.08,1-1.13s1,.39,1.7.68c-.65.69-1.52,1-.73,1.75a1.16,1.16,0,0,0,1,.24,14.72,14.72,0,0,0,2.18-1.24,1.22,1.22,0,0,0,.48-.73C113,190.64,113.32,188.51,113.73,186.09Z"/><path class="cls-1" d="M122,195.22a13.3,13.3,0,0,0,4.88-4.34c.51-.77,1-.7,1.56-.12a1.35,1.35,0,0,1,.11,1,16,16,0,0,1-.57,1.78l.33.19c1.11-1.39,2.21-2.78,3.33-4.17.36-.45.61-1.15,1.42-.79s.76,1,.69,1.65-.12,1.26-.21,2.12c1.58-1.2,2.95-2.27,3.35-4.12.15-.72.34-1.16,1.21-.66a1.54,1.54,0,0,0,1.17-.19c1.11-.62,2-.61,2.69.18a2.21,2.21,0,0,1,.26.81,6,6,0,0,0-.72.13c-.37.1-.88.12-1.06.38-.89,1.22-1.68,2.52-2.51,3.79-.26.4-.53.79-.8,1.18l-1.41-1c-2.75,1.75-2.91,1.74-3.91-.43-.67.71-1.29,1.44-2,2.08-1.58,1.48-2.45,1.38-3.72-.41l-1.36,1.17c-2.16,1.82-3.6,1.47-4.59-1.28-.72.81-1.38,1.57-2.07,2.29a7.07,7.07,0,0,1-1.2,1.06,1,1,0,0,1-1.71-.86,6.33,6.33,0,0,1,2.07-5,2.25,2.25,0,0,1,1.44-.57,8.28,8.28,0,0,1,2.76.51c.4.17.68.93.77,1.46A9.61,9.61,0,0,1,122,195.22Z"/><path class="cls-1" d="M41.84,149.32c2.33,0,2.58.06,2.45,2.42a46.88,46.88,0,0,1-1.12,6.72,1.53,1.53,0,0,1-2.06.9c-.88-.27-.58-.91-.47-1.5s.21-1.2.31-1.8.58-1.63-.81-1.71c-.13,0-.33-.55-.35-.85,0-.91,0-1.83,0-2.74,0-1.42,0-1.44,1.49-1.44Z"/><path class="cls-2" d="M126.9,81.83c.65.16,1.16.25,1.65.41L143.05,87a1.84,1.84,0,0,1,1.51,2q0,21.71,0,43.41a1.25,1.25,0,0,1-1,1.44c-5.17,1.69-10.32,3.44-15.47,5.16-.35.12-.72.18-1.23.31Zm7.82,28.73A1.42,1.42,0,0,0,133.3,109a1.52,1.52,0,1,0-.12,3A1.4,1.4,0,0,0,134.72,110.56Z"/><path class="cls-2" d="M108.79,159.52c0-1.41,0-2.82,0-4.24,0-.8.24-1.19,1.11-1.17,2.14,0,4.28,0,6.41,0,3.33.1,5.33,2.32,5.27,5.76a5.2,5.2,0,0,1-5.47,5.45c-2,0-4,0-5.95,0-1,0-1.4-.35-1.37-1.36.06-1.49,0-3,0-4.47Z"/><path class="cls-2" d="M79.25,164.81v-8.93c0-1.71,0-1.76,1.71-1.76s3.28,0,4.92,0c3.58.14,6.36,1.71,7.82,5a12.57,12.57,0,0,1-.55,12.16,8.27,8.27,0,0,1-7.22,4.11c-1.72.06-3.44,0-5.15,0-1.39,0-1.53-.13-1.53-1.49C79.24,170.92,79.25,167.87,79.25,164.81Z"/><path class="cls-2" d="M59.55,155.52c.14.29.32.58.43.88,1.28,3.46,2.56,6.91,3.82,10.38.44,1.21.35,1.33-.89,1.33H54.44l4.73-12.62Z"/><path class="cls-1" d="M134.72,110.56a1.4,1.4,0,0,1-1.54,1.46,1.52,1.52,0,1,1,.12-3A1.42,1.42,0,0,1,134.72,110.56Z"/></svg>